<svg width="415" height="110" viewBox="0 0 415 110" fill="none" xmlns="http://www.w3.org/2000/svg">
<path d="M33.376 76.72V82.48H32.096V76.72C32.096 74.8427 32.1387 73.0933 32.224 71.472C32.3947 69.7653 32.992 68.2293 34.016 66.864L49.376 45.872L34.016 25.136C33.0773 23.7707 32.5227 22.2773 32.352 20.656C32.1813 18.9493 32.096 17.1573 32.096 15.28V13.36H33.376V15.28C33.376 17.072 33.4613 18.7787 33.632 20.4C33.8027 22.0213 34.3147 23.4293 35.168 24.624L50.528 45.36H65.76L80.608 24.624C81.4613 23.4293 81.9733 22.0213 82.144 20.4C82.3147 18.7787 82.4 17.072 82.4 15.28V13.36H83.68V15.28C83.68 17.1573 83.5947 18.9493 83.424 20.656C83.2533 22.2773 82.6987 23.7707 81.76 25.136L66.656 46.128L81.76 66.864C82.6987 68.2293 83.2533 69.7653 83.424 71.472C83.5947 73.0933 83.68 74.8427 83.68 76.72V82.48H82.4V76.72C82.4 74.928 82.3147 73.2213 82.144 71.6C81.9733 69.9787 81.4613 68.5707 80.608 67.376L65.632 46.64H50.272L35.168 67.376C34.3147 68.4853 33.8027 69.8933 33.632 71.6C33.4613 73.2213 33.376 74.928 33.376 76.72ZM47.072 89.392V76.72C47.072 75.8667 47.1147 74.9707 47.2 74.032C47.2853 73.0933 47.6267 72.1973 48.224 71.344L53.984 63.28C54.496 62.512 54.9653 61.9573 55.392 61.616C55.8187 61.2747 56.3733 61.104 57.056 61.104H58.848C59.5307 61.104 60.0853 61.2747 60.512 61.616C60.9387 61.9573 61.408 62.512 61.92 63.28L67.552 71.344C68.1493 72.1973 68.4907 73.0933 68.576 74.032C68.6613 74.9707 68.704 75.8667 68.704 76.72V89.392C68.704 91.0133 69.0453 92.208 69.728 92.976C70.496 93.6587 71.6907 94 73.312 94H92.768C94.3893 94 95.5413 93.6587 96.224 92.976C96.992 92.208 97.376 91.0133 97.376 89.392V75.696C97.376 71.7707 97.0347 68.8267 96.352 66.864C95.7547 64.9013 94.4747 62.5973 92.512 59.952L82.144 46.128L92.512 32.048C94.3893 29.4027 95.6693 27.0987 96.352 25.136C97.0347 23.1733 97.376 20.2293 97.376 16.304V6.448C97.376 4.82667 96.992 3.67466 96.224 2.992C95.5413 2.224 94.3893 1.84 92.768 1.84H73.312C71.6907 1.84 70.496 2.224 69.728 2.992C69.0453 3.67466 68.704 4.82667 68.704 6.448V15.28C68.704 16.1333 68.6613 17.0293 68.576 17.968C68.4907 18.9067 68.1493 19.8027 67.552 20.656L61.792 28.72C61.28 29.4027 60.8107 29.9573 60.384 30.384C59.9573 30.7253 59.4027 30.896 58.72 30.896H57.184C56.5013 30.896 55.904 30.7253 55.392 30.384C54.9653 29.9573 54.5387 29.4027 54.112 28.72L48.48 20.656C47.8827 19.8027 47.5413 18.9067 47.456 17.968C47.3707 17.0293 47.328 16.1333 47.328 15.28V6.448C47.328 4.82667 46.944 3.67466 46.176 2.992C45.4933 2.224 44.3413 1.84 42.72 1.84H23.008C21.3867 1.84 20.192 2.224 19.424 2.992C18.7413 3.67466 18.4 4.82667 18.4 6.448V16.304C18.4 20.2293 18.6987 23.1733 19.296 25.136C19.9787 27.0987 21.3013 29.4027 23.264 32.048L33.632 46L23.264 59.952C21.3867 62.5973 20.1067 64.9013 19.424 66.864C18.7413 68.8267 18.4 71.7707 18.4 75.696V89.392C18.4 91.0133 18.7413 92.208 19.424 92.976C20.192 93.6587 21.3867 94 23.008 94H42.464C44.0853 94 45.2373 93.6587 45.92 92.976C46.688 92.208 47.072 91.0133 47.072 89.392ZM46.56 94.128L29.92 107.952C29.5787 108.293 29.024 108.592 28.256 108.848C27.5733 109.104 26.8053 109.232 25.952 109.232H6.496C4.448 109.232 2.95467 108.763 2.016 107.824C1.07733 106.885 0.608 105.392 0.608 103.344V89.648C0.608 85.4667 0.949334 82.352 1.632 80.304C2.31467 78.256 3.68 75.8667 5.728 73.136L15.584 59.952L5.728 46.768C3.68 44.0373 2.31467 41.648 1.632 39.6C0.949334 37.552 0.608 34.4373 0.608 30.256V20.4C0.608 19.2907 0.736 18.352 0.992 17.584C1.33333 16.816 1.80267 16.176 2.4 15.664L18.912 1.712C19.3387 1.37066 19.8933 1.11466 20.576 0.943993C21.344 0.687996 22.1547 0.559998 23.008 0.559998H42.72C44.768 0.559998 46.2613 1.02933 47.2 1.96799C48.1387 2.90666 48.608 4.4 48.608 6.448V15.28C48.608 16.048 48.608 16.8587 48.608 17.712C48.6933 18.48 48.992 19.2053 49.504 19.888L50.912 21.936V20.4C50.912 19.2907 51.04 18.352 51.296 17.584C51.6373 16.816 52.1067 16.176 52.704 15.664L69.216 1.712C69.6427 1.37066 70.1973 1.11466 70.88 0.943993C71.648 0.687996 72.4587 0.559998 73.312 0.559998H92.768C94.816 0.559998 96.3093 1.02933 97.248 1.96799C98.1867 2.90666 98.656 4.4 98.656 6.448V16.304C98.656 20.4853 98.3147 23.6 97.632 25.648C96.9493 27.696 95.584 30.0853 93.536 32.816L83.68 46.128L93.536 59.184C95.584 61.9147 96.9493 64.304 97.632 66.352C98.3147 68.4 98.656 71.5147 98.656 75.696V89.392C98.656 90.5013 98.4853 91.44 98.144 92.208C97.888 92.976 97.4613 93.616 96.864 94.128L80.224 107.952C79.8827 108.293 79.328 108.592 78.56 108.848C77.8773 109.104 77.1093 109.232 76.256 109.232H56.8C54.752 109.232 53.2587 108.763 52.32 107.824C51.3813 106.885 50.912 105.392 50.912 103.344V90.672C50.912 89.904 50.8693 89.136 50.784 88.368C50.784 87.6 50.528 86.832 50.016 86.064L48.352 83.76V89.392C48.352 90.5013 48.1813 91.44 47.84 92.208C47.584 92.976 47.1573 93.616 46.56 94.128ZM169.685 14.64H141.781V51.632H169.685C174.976 51.632 178.517 50.352 180.309 47.792C182.101 45.232 182.997 41.6053 182.997 36.912V27.952C182.997 24.0267 181.888 20.8267 179.669 18.352C177.536 15.8773 174.208 14.64 169.685 14.64ZM155.605 24.88H165.205C167.424 24.88 168.917 25.4773 169.685 26.672C170.453 27.7813 170.837 29.1893 170.837 30.896V35.248C170.837 36.9547 170.453 38.4053 169.685 39.6C168.917 40.7093 167.424 41.264 165.205 41.264H155.605V24.88ZM141.781 82.48H140.501V13.36H169.685C174.634 13.36 178.304 14.768 180.693 17.584C183.082 20.3147 184.277 23.7707 184.277 27.952V36.784C184.277 40.7093 183.765 43.952 182.741 46.512C181.717 48.9867 179.669 50.6933 176.597 51.632H178.005C183.21 51.632 187.093 52.8267 189.653 55.216C192.213 57.52 193.493 60.8907 193.493 65.328V82.48H192.213V65.328C192.213 61.1467 191.061 58.032 188.757 55.984C186.453 53.8507 182.869 52.784 178.005 52.784H141.781V82.48ZM150.997 94C152.618 94 153.77 93.6587 154.453 92.976C155.221 92.208 155.605 91.0133 155.605 89.392V64.304H173.525C175.317 64.304 176.554 64.7733 177.237 65.712C178.005 66.5653 178.389 67.9307 178.389 69.808V89.392C178.389 91.0133 178.73 92.208 179.413 92.976C180.181 93.6587 181.376 94 182.997 94H202.837C204.458 94 205.61 93.6587 206.293 92.976C207.061 92.208 207.445 91.0133 207.445 89.392V62.256C207.445 56.88 205.994 52.5707 203.093 49.328C200.277 46.0853 196.565 44.208 191.957 43.696C194.602 42.5867 196.437 40.7947 197.461 38.32C198.57 35.76 199.125 32.688 199.125 29.104V23.216C199.125 16.9013 197.29 11.7813 193.621 7.856C190.037 3.84533 183.466 1.84 173.909 1.84H131.285C129.664 1.84 128.469 2.224 127.701 2.992C127.018 3.67466 126.677 4.82667 126.677 6.448V89.392C126.677 91.0133 127.018 92.208 127.701 92.976C128.469 93.6587 129.664 94 131.285 94H150.997ZM155.093 94.128L138.453 107.952C138.112 108.293 137.557 108.592 136.789 108.848C136.106 109.104 135.338 109.232 134.485 109.232H114.773C112.725 109.232 111.232 108.763 110.293 107.824C109.354 106.885 108.885 105.392 108.885 103.344V20.4C108.885 19.2907 109.013 18.352 109.269 17.584C109.61 16.816 110.08 16.176 110.677 15.664L127.189 1.712C127.616 1.37066 128.17 1.11466 128.853 0.943993C129.621 0.687996 130.432 0.559998 131.285 0.559998H173.909C184.064 0.559998 191.018 2.69333 194.773 6.96C198.528 11.1413 200.405 16.56 200.405 23.216V29.104C200.405 32.2613 200.021 35.0347 199.253 37.424C198.485 39.728 197.248 41.6053 195.541 43.056H195.413C199.424 44.1653 202.624 46.384 205.013 49.712C207.488 53.04 208.725 57.2213 208.725 62.256V89.392C208.725 90.5013 208.554 91.44 208.213 92.208C207.957 92.976 207.53 93.616 206.933 94.128L190.293 107.952C189.952 108.293 189.397 108.592 188.629 108.848C187.946 109.104 187.178 109.232 186.325 109.232H166.485C164.437 109.232 162.944 108.763 162.005 107.824C161.066 106.885 160.597 105.392 160.597 103.344V83.76C160.597 82.3947 160.341 81.3707 159.829 80.688C159.317 79.92 158.378 79.536 157.013 79.536H156.885V89.392C156.885 90.5013 156.714 91.44 156.373 92.208C156.117 92.976 155.69 93.616 155.093 94.128ZM247.48 55.216V59.184H297.4V55.216C297.4 52.912 297.187 50.7787 296.76 48.816C296.419 46.8533 295.949 45.0187 295.352 43.312L286.52 22.448C285.581 20.2293 284.6 18.3947 283.576 16.944C282.552 15.408 280.845 14.64 278.456 14.64H265.912C263.352 14.64 261.56 15.408 260.536 16.944C259.512 18.3947 258.573 20.1867 257.72 22.32L249.528 43.312C248.931 45.0187 248.419 46.8533 247.992 48.816C247.651 50.7787 247.48 52.912 247.48 55.216ZM267.96 28.72C268.301 27.952 268.643 27.3973 268.984 27.056C269.411 26.7147 269.88 26.544 270.392 26.544H273.592C274.104 26.544 274.531 26.7147 274.872 27.056C275.299 27.3973 275.683 27.952 276.024 28.72L282.04 48.176H261.944L267.96 28.72ZM297.4 82.48V60.464H247.48V82.48H246.2V55.216C246.2 52.8267 246.371 50.6507 246.712 48.688C247.139 46.64 247.693 44.6773 248.376 42.8L256.568 21.808C257.507 19.4187 258.573 17.4133 259.768 15.792C260.963 14.1707 263.011 13.36 265.912 13.36H278.456C281.272 13.36 283.235 14.1707 284.344 15.792C285.539 17.4133 286.648 19.4613 287.672 21.936L296.504 42.8C297.187 44.6773 297.699 46.64 298.04 48.688C298.467 50.6507 298.68 52.8267 298.68 55.216V82.48H297.4ZM260.664 89.392V71.472H283.32V89.392C283.32 91.0133 283.704 92.208 284.472 92.976C285.325 93.6587 286.605 94 288.312 94H307.64C309.261 94 310.413 93.6587 311.096 92.976C311.864 92.208 312.248 91.0133 312.248 89.392V55.6C312.248 53.04 311.821 50.096 310.968 46.768C310.2 43.44 308.963 39.5573 307.256 35.12L296.12 6.064C295.608 4.61333 294.797 3.54666 293.688 2.864C292.664 2.18133 291.341 1.84 289.72 1.84H255.288C253.581 1.84 252.173 2.18133 251.064 2.864C250.04 3.54666 249.272 4.61333 248.76 6.064L237.624 35.12C235.917 39.5573 234.637 43.44 233.784 46.768C233.016 50.096 232.632 53.04 232.632 55.6V89.392C232.632 91.0133 232.973 92.208 233.656 92.976C234.424 93.6587 235.619 94 237.24 94H256.056C257.677 94 258.829 93.6587 259.512 92.976C260.28 92.208 260.664 91.0133 260.664 89.392ZM243.512 107.952C243.171 108.293 242.616 108.592 241.848 108.848C241.165 109.104 240.397 109.232 239.544 109.232H220.728C218.68 109.232 217.187 108.763 216.248 107.824C215.309 106.885 214.84 105.392 214.84 103.344V69.552C214.84 66.9067 215.224 63.92 215.992 60.592C216.845 57.1787 218.168 53.168 219.96 48.56L230.968 19.632C231.224 18.864 231.523 18.224 231.864 17.712C232.291 17.1147 232.717 16.6027 233.144 16.176L233.272 16.048L249.656 2.352C250.339 1.75466 251.149 1.328 252.088 1.072C253.027 0.730665 254.093 0.559998 255.288 0.559998H289.72C291.683 0.559998 293.261 0.986664 294.456 1.84C295.736 2.608 296.675 3.84533 297.272 5.55199L308.408 34.608C310.2 39.216 311.48 43.2267 312.248 46.64C313.101 49.968 313.528 52.9547 313.528 55.6V89.392C313.528 90.5013 313.357 91.44 313.016 92.208C312.76 92.976 312.333 93.616 311.736 94.128L295.096 107.952C294.755 108.293 294.2 108.592 293.432 108.848C292.749 109.104 291.981 109.232 291.128 109.232H271.8C269.667 109.232 268.088 108.72 267.064 107.696C266.04 106.757 265.528 105.307 265.528 103.344V86.704H261.944V89.392C261.944 90.5013 261.773 91.44 261.432 92.208C261.176 92.976 260.749 93.616 260.152 94.128L243.512 107.952ZM367.76 109.232H347.024C344.891 109.232 343.355 108.763 342.416 107.824C341.563 106.885 341.136 105.392 341.136 103.344V87.344L321.808 61.488C319.76 58.7573 318.395 56.368 317.712 54.32C317.029 52.272 316.688 49.1573 316.688 44.976V20.4C316.688 19.2907 316.816 18.352 317.072 17.584C317.413 16.816 317.883 16.176 318.48 15.664L334.992 1.712C335.419 1.37066 335.973 1.11466 336.656 0.943993C337.424 0.687996 338.235 0.559998 339.088 0.559998H358.8C360.848 0.559998 362.341 1.02933 363.28 1.96799C364.219 2.90666 364.688 4.4 364.688 6.448V27.44C364.688 28.208 364.731 28.976 364.816 29.744C364.901 30.512 365.157 31.3227 365.584 32.176L367.12 34.352V20.4C367.12 19.2907 367.248 18.352 367.504 17.584C367.845 16.816 368.315 16.176 368.912 15.664L385.424 1.712C385.851 1.37066 386.405 1.11466 387.088 0.943993C387.856 0.687996 388.667 0.559998 389.52 0.559998H408.592C410.64 0.559998 412.133 1.02933 413.072 1.96799C414.011 2.90666 414.48 4.4 414.48 6.448V31.024C414.48 35.2053 414.139 38.32 413.456 40.368C412.773 42.416 411.408 44.8053 409.36 47.536L390.16 73.52V89.392C390.16 90.5013 389.989 91.44 389.648 92.208C389.392 92.976 388.965 93.616 388.368 94.128L371.728 107.952C371.387 108.293 370.832 108.592 370.064 108.848C369.381 109.104 368.613 109.232 367.76 109.232ZM384.272 94C385.893 94 387.045 93.6587 387.728 92.976C388.496 92.208 388.88 91.0133 388.88 89.392V73.136L408.336 46.768C410.213 44.1227 411.493 41.8187 412.176 39.856C412.859 37.8933 413.2 34.9493 413.2 31.024V6.448C413.2 4.82667 412.816 3.67466 412.048 2.992C411.365 2.224 410.213 1.84 408.592 1.84H389.52C387.899 1.84 386.704 2.224 385.936 2.992C385.253 3.67466 384.912 4.82667 384.912 6.448V27.44C384.912 28.2933 384.869 29.1893 384.784 30.128C384.699 31.0667 384.357 31.9627 383.76 32.816L377.872 42.032C377.445 42.8 376.976 43.3547 376.464 43.696C376.037 44.0373 375.483 44.208 374.8 44.208H373.52C372.837 44.208 372.24 44.0373 371.728 43.696C371.301 43.3547 370.875 42.8 370.448 42.032L364.56 32.816C363.963 31.9627 363.621 31.0667 363.536 30.128C363.451 29.1893 363.408 28.2933 363.408 27.44V6.448C363.408 4.82667 363.024 3.67466 362.256 2.992C361.573 2.224 360.421 1.84 358.8 1.84H339.088C337.467 1.84 336.272 2.224 335.504 2.992C334.821 3.67466 334.48 4.82667 334.48 6.448V31.024C334.48 34.9493 334.779 37.8933 335.376 39.856C336.059 41.8187 337.381 44.1227 339.344 46.768L358.928 73.008V89.392C358.928 91.0133 359.269 92.208 359.952 92.976C360.72 93.6587 361.915 94 363.536 94H384.272ZM375.44 60.592H374.544V82.48H373.264V60.592H371.984C370.107 60.592 368.4 60.1653 366.864 59.312C365.413 58.4587 364.005 57.0933 362.64 55.216L350.224 37.936C349.285 36.656 348.731 35.1627 348.56 33.456C348.389 31.7493 348.304 29.9573 348.304 28.08V13.36H349.584V28.08C349.584 29.872 349.669 31.5787 349.84 33.2C350.011 34.736 350.523 36.144 351.376 37.424L363.792 54.704C364.901 56.4107 366.181 57.6053 367.632 58.288C369.083 58.9707 370.533 59.312 371.984 59.312H375.44C377.061 59.312 378.512 58.9707 379.792 58.288C381.157 57.52 382.48 56.3253 383.76 54.704L396.56 37.424C397.413 36.3147 397.925 34.9493 398.096 33.328C398.267 31.6213 398.352 29.872 398.352 28.08V13.36H399.632V28.08C399.632 29.9573 399.547 31.7493 399.376 33.456C399.291 35.0773 398.736 36.5707 397.712 37.936L384.912 55.216C383.547 57.0933 382.096 58.4587 380.56 59.312C379.109 60.1653 377.403 60.592 375.44 60.592Z" fill="#E84125"/>
</svg>
